<svg width="826" height="3138" viewBox="0 0 826 3138" fill="none" xmlns="http://www.w3.org/2000/svg">
<mask id="mask0_12_33" style="mask-type:alpha" maskUnits="userSpaceOnUse" x="0" y="0" width="826" height="1634">
<rect width="825.6" height="1634" fill="#D9D9D9"/>
</mask>
<g mask="url(#mask0_12_33)">
<rect width="825.6" height="1634" fill="#454545"/>
<path d="M476.225 559.645C439.933 477.601 443.617 424.41 449.995 408.07C462.584 375.82 461.65 372.165 496.435 334.11C546.745 279.07 829.327 128.14 965.35 72.885L973.735 310.245L1005.98 1442.65C880.712 1459.71 607.977 1477.35 519.225 1411.47C408.285 1329.13 373.67 961.695 360.34 855.485C347.01 749.275 521.59 662.2 476.225 559.645Z" fill="#232323"/>
<path d="M324.65 308.74C230.566 150.5 -74.6051 70.95 -215.43 50.955C-360.627 815.423 -650.117 2364.78 -646.505 2446.48C-642.893 2528.18 449.78 2652.38 995.665 2704.27L955.675 1784.28V1442C584.585 1476.83 -139.363 1462.95 -66.4351 1128.75C24.7249 711.005 566.74 833.125 629.09 681.98C691.44 530.835 442.255 506.54 324.65 308.74Z" fill="#333333" fill-opacity="0.49"/>
</g>
<mask id="mask1_12_33" style="mask-type:alpha" maskUnits="userSpaceOnUse" x="0" y="1504" width="826" height="1634">
<rect x="825.6" y="3138" width="825.6" height="1634" transform="rotate(180 825.6 3138)" fill="#D9D9D9"/>
</mask>
<g mask="url(#mask1_12_33)">
<rect x="825.6" y="3138" width="825.6" height="1634" transform="rotate(180 825.6 3138)" fill="#454545"/>
<path d="M349.375 2578.35C385.667 2660.4 381.983 2713.59 375.605 2729.93C363.016 2762.18 363.95 2765.84 329.165 2803.89C278.855 2858.93 -3.72657 3009.86 -139.75 3065.12L-148.135 2827.76L-180.385 1695.35C-55.1117 1678.29 217.623 1660.65 306.375 1726.53C417.315 1808.87 451.93 2176.3 465.26 2282.51C478.59 2388.72 304.01 2475.8 349.375 2578.35Z" fill="#232323"/>
<path d="M500.95 2829.26C595.034 2987.5 900.205 3067.05 1041.03 3087.04C1186.23 2322.58 1475.72 773.215 1472.1 691.515C1468.49 609.815 375.82 485.617 -170.065 433.73L-130.075 1353.72L-130.075 1696C241.015 1661.17 964.963 1675.05 892.035 2009.25C800.875 2426.99 258.86 2304.88 196.51 2456.02C134.16 2607.17 383.345 2631.46 500.95 2829.26Z" fill="#333333" fill-opacity="0.49"/>
</g>
</svg>
