<svg width="27" height="16" viewBox="0 0 27 16" fill="none" xmlns="http://www.w3.org/2000/svg">
<path d="M0.578617 4.02709C-0.192872 3.2639 -0.192873 2.02652 0.578617 1.26333L1.27707 0.572394C2.04856 -0.190798 3.29939 -0.190798 4.07088 0.572394L15.5954 11.9729C16.3668 12.7361 16.3668 13.9735 15.5954 14.7367L14.8969 15.4276C14.1254 16.1908 12.8746 16.1908 12.1031 15.4276L0.578617 4.02709Z" fill="#CCCCCC"/>
<path d="M14.8969 15.4276C14.1254 16.1908 12.8746 16.1908 12.1031 15.4276L11.4046 14.7367C10.6332 13.9735 10.6332 12.7361 11.4046 11.9729L22.9291 0.572402C23.7006 -0.190789 24.9514 -0.19079 25.7229 0.572402L26.4214 1.26334C27.1929 2.02653 27.1929 3.26391 26.4214 4.0271L14.8969 15.4276Z" fill="#CCCCCC"/>
</svg>
