<svg width="70" height="68" viewBox="0 0 70 68" fill="none" xmlns="http://www.w3.org/2000/svg">
<path d="M23.4133 54.7535C23.4133 55.0347 23.0887 55.2597 22.6794 55.2597C22.2137 55.3019 21.8891 55.0769 21.8891 54.7535C21.8891 54.4723 22.2137 54.2473 22.623 54.2473C23.0464 54.2051 23.4133 54.4301 23.4133 54.7535ZM19.0242 54.1208C18.9254 54.402 19.2077 54.7254 19.631 54.8097C19.998 54.9503 20.4214 54.8097 20.506 54.5285C20.5907 54.2473 20.3226 53.9239 19.8992 53.7974C19.5323 53.6989 19.123 53.8395 19.0242 54.1208ZM25.2621 53.8817C24.8528 53.9801 24.5706 54.2473 24.6129 54.5707C24.6552 54.8519 25.0222 55.0347 25.4456 54.9363C25.8548 54.8379 26.1371 54.5707 26.0948 54.2895C26.0524 54.0223 25.6714 53.8395 25.2621 53.8817ZM34.5484 0C14.9738 0 0 14.8062 0 34.3088C0 49.9025 9.85081 63.2463 23.9214 67.9427C25.7278 68.2661 26.3629 67.1553 26.3629 66.2413C26.3629 65.3695 26.3206 60.5607 26.3206 57.6079C26.3206 57.6079 16.4415 59.717 14.3669 53.4177C14.3669 53.4177 12.7581 49.326 10.4435 48.2714C10.4435 48.2714 7.21169 46.0638 10.6694 46.106C10.6694 46.106 14.1835 46.3872 16.1169 49.7337C19.2077 55.1613 24.3871 53.6005 26.4052 52.6725C26.7298 50.4227 27.6472 48.8619 28.6633 47.9339C20.7742 47.0621 12.8145 45.9232 12.8145 32.3965C12.8145 28.5297 13.8871 26.5893 16.1452 24.1146C15.7782 23.2006 14.5786 19.4323 16.5121 14.5672C19.4617 13.6532 26.25 18.3637 26.25 18.3637C29.0726 17.5762 32.1069 17.1685 35.1129 17.1685C38.119 17.1685 41.1532 17.5762 43.9758 18.3637C43.9758 18.3637 50.7641 13.6392 53.7137 14.5672C55.6472 19.4463 54.4476 23.2006 54.0806 24.1146C56.3387 26.6034 57.7218 28.5438 57.7218 32.3965C57.7218 45.9654 49.4093 47.0481 41.5202 47.9339C42.8185 49.0447 43.9194 51.1539 43.9194 54.4582C43.9194 59.1968 43.877 65.0602 43.877 66.2132C43.877 67.1272 44.5262 68.238 46.3185 67.9146C60.4315 63.2463 70 49.9025 70 34.3088C70 14.8062 54.123 0 34.5484 0ZM13.7177 48.4964C13.5343 48.637 13.5766 48.9604 13.8165 49.2275C14.0423 49.4525 14.3669 49.5509 14.5504 49.3681C14.7339 49.2275 14.6915 48.9041 14.4516 48.637C14.2258 48.412 13.9012 48.3136 13.7177 48.4964ZM12.1935 47.3574C12.0948 47.5402 12.2359 47.7652 12.5181 47.9058C12.744 48.0464 13.0262 48.0042 13.125 47.8074C13.2238 47.6246 13.0827 47.3996 12.8004 47.259C12.5181 47.1746 12.2923 47.2168 12.1935 47.3574ZM16.7661 52.3631C16.5403 52.5459 16.625 52.9678 16.9496 53.2349C17.2742 53.5583 17.6835 53.6005 17.8669 53.3755C18.0504 53.1927 17.9657 52.7709 17.6835 52.5037C17.373 52.1803 16.9496 52.1382 16.7661 52.3631ZM15.1573 50.2962C14.9315 50.4368 14.9315 50.8024 15.1573 51.1258C15.3831 51.4492 15.7641 51.5898 15.9476 51.4492C16.1734 51.2664 16.1734 50.9008 15.9476 50.5774C15.75 50.254 15.3831 50.1134 15.1573 50.2962Z" fill="white"/>
</svg>
