<svg width="264" height="255" viewBox="0 0 264 255" fill="none" xmlns="http://www.w3.org/2000/svg">
<path d="M41.8386 17.4497L22.1143 37.1161C12.4488 46.7532 12.4488 62.3781 22.1143 72.0152L185.456 234.878C195.121 244.515 210.792 244.515 220.458 234.878L240.182 215.211C249.848 205.574 249.847 189.949 240.182 180.312L76.8404 17.4497C67.1749 7.81255 51.504 7.81255 41.8386 17.4497Z" fill="black"/>
<path d="M22.113 215.211L41.8372 234.878C51.5027 244.515 67.1735 244.515 76.839 234.878L240.181 72.0152C249.846 62.378 249.846 46.7531 240.181 37.116L220.456 17.4496C210.791 7.81247 195.12 7.81248 185.455 17.4496L22.113 180.312C12.4475 189.949 12.4475 205.574 22.113 215.211Z" fill="black"/>
</svg>
