<svg width="67" height="46" viewBox="0 0 67 46" fill="none" xmlns="http://www.w3.org/2000/svg">
<path d="M3 20C1.34315 20 0 21.3431 0 23C0 24.6569 1.34315 26 3 26L3 20ZM66.1213 25.1213C67.2929 23.9497 67.2929 22.0503 66.1213 20.8787L47.0294 1.7868C45.8579 0.615224 43.9584 0.615224 42.7868 1.7868C41.6152 2.95837 41.6152 4.85786 42.7868 6.02944L59.7574 23L42.7868 39.9706C41.6152 41.1421 41.6152 43.0416 42.7868 44.2132C43.9584 45.3848 45.8579 45.3848 47.0294 44.2132L66.1213 25.1213ZM3 26L64 26V20L3 20L3 26Z" fill="white"/>
</svg>
